<?xml version="1.0" encoding="utf-8" standalone="no"?>
<!DOCTYPE svg PUBLIC "-//W3C//DTD SVG 1.1//EN"
  "http://www.w3.org/Graphics/SVG/1.1/DTD/svg11.dtd">
<svg xmlns:xlink="http://www.w3.org/1999/xlink" width="999.498437pt" height="422.836pt" viewBox="0 0 999.498437 422.836" xmlns="http://www.w3.org/2000/svg" version="1.1">
 <metadata>
  <rdf:RDF xmlns:dc="http://purl.org/dc/elements/1.1/" xmlns:cc="http://creativecommons.org/ns#" xmlns:rdf="http://www.w3.org/1999/02/22-rdf-syntax-ns#">
   <cc:Work>
    <dc:type rdf:resource="http://purl.org/dc/dcmitype/StillImage"/>
    <dc:date>2025-11-09T17:59:47.264123</dc:date>
    <dc:format>image/svg+xml</dc:format>
    <dc:creator>
     <cc:Agent>
      <dc:title>Matplotlib v3.10.7, https://matplotlib.org/</dc:title>
     </cc:Agent>
    </dc:creator>
   </cc:Work>
  </rdf:RDF>
 </metadata>
 <defs>
  <style type="text/css">*{stroke-linejoin: round; stroke-linecap: butt}</style>
 </defs>
 <g id="figure_1">
  <g id="patch_1">
   <path d="M 0 422.836 
L 999.498437 422.836 
L 999.498437 0 
L 0 0 
z
" style="fill: #ffffff"/>
  </g>
  <g id="axes_1">
   <g id="patch_2">
    <path d="M 50.918438 383.344125 
L 992.298437 383.344125 
L 992.298437 39.624125 
L 50.918438 39.624125 
z
" style="fill: #ffffff"/>
   </g>
   <g id="matplotlib.axis_1">
    <g id="xtick_1">
     <g id="line2d_1">
      <defs>
       <path id="m083cedf5e3" d="M 0 0 
L 0 3.5 
" style="stroke: #000000; stroke-width: 0.8"/>
      </defs>
      <g>
       <use xlink:href="#m083cedf5e3" x="92.615462" y="383.344125" style="stroke: #000000; stroke-width: 0.8"/>
      </g>
     </g>
     <g id="text_1">
      <!-- 0 -->
      <g transform="translate(89.434212 397.942563) scale(0.1 -0.1)">
       <defs>
        <path id="DejaVuSans-30" d="M 2034 4250 
Q 1547 4250 1301 3770 
Q 1056 3291 1056 2328 
Q 1056 1369 1301 889 
Q 1547 409 2034 409 
Q 2525 409 2770 889 
Q 3016 1369 3016 2328 
Q 3016 3291 2770 3770 
Q 2525 4250 2034 4250 
z
M 2034 4750 
Q 2819 4750 3233 4129 
Q 3647 3509 3647 2328 
Q 3647 1150 3233 529 
Q 2819 -91 2034 -91 
Q 1250 -91 836 529 
Q 422 1150 422 2328 
Q 422 3509 836 4129 
Q 1250 4750 2034 4750 
z
" transform="scale(0.015625)"/>
       </defs>
       <use xlink:href="#DejaVuSans-30"/>
      </g>
     </g>
    </g>
    <g id="xtick_2">
     <g id="line2d_2">
      <g>
       <use xlink:href="#m083cedf5e3" x="201.913035" y="383.344125" style="stroke: #000000; stroke-width: 0.8"/>
      </g>
     </g>
     <g id="text_2">
      <!-- 100 -->
      <g transform="translate(192.369285 397.942563) scale(0.1 -0.1)">
       <defs>
        <path id="DejaVuSans-31" d="M 794 531 
L 1825 531 
L 1825 4091 
L 703 3866 
L 703 4441 
L 1819 4666 
L 2450 4666 
L 2450 531 
L 3481 531 
L 3481 0 
L 794 0 
L 794 531 
z
" transform="scale(0.015625)"/>
       </defs>
       <use xlink:href="#DejaVuSans-31"/>
       <use xlink:href="#DejaVuSans-30" transform="translate(63.623047 0)"/>
       <use xlink:href="#DejaVuSans-30" transform="translate(127.246094 0)"/>
      </g>
     </g>
    </g>
    <g id="xtick_3">
     <g id="line2d_3">
      <g>
       <use xlink:href="#m083cedf5e3" x="311.210609" y="383.344125" style="stroke: #000000; stroke-width: 0.8"/>
      </g>
     </g>
     <g id="text_3">
      <!-- 200 -->
      <g transform="translate(301.666859 397.942563) scale(0.1 -0.1)">
       <defs>
        <path id="DejaVuSans-32" d="M 1228 531 
L 3431 531 
L 3431 0 
L 469 0 
L 469 531 
Q 828 903 1448 1529 
Q 2069 2156 2228 2338 
Q 2531 2678 2651 2914 
Q 2772 3150 2772 3378 
Q 2772 3750 2511 3984 
Q 2250 4219 1831 4219 
Q 1534 4219 1204 4116 
Q 875 4013 500 3803 
L 500 4441 
Q 881 4594 1212 4672 
Q 1544 4750 1819 4750 
Q 2544 4750 2975 4387 
Q 3406 4025 3406 3419 
Q 3406 3131 3298 2873 
Q 3191 2616 2906 2266 
Q 2828 2175 2409 1742 
Q 1991 1309 1228 531 
z
" transform="scale(0.015625)"/>
       </defs>
       <use xlink:href="#DejaVuSans-32"/>
       <use xlink:href="#DejaVuSans-30" transform="translate(63.623047 0)"/>
       <use xlink:href="#DejaVuSans-30" transform="translate(127.246094 0)"/>
      </g>
     </g>
    </g>
    <g id="xtick_4">
     <g id="line2d_4">
      <g>
       <use xlink:href="#m083cedf5e3" x="420.508182" y="383.344125" style="stroke: #000000; stroke-width: 0.8"/>
      </g>
     </g>
     <g id="text_4">
      <!-- 300 -->
      <g transform="translate(410.964432 397.942563) scale(0.1 -0.1)">
       <defs>
        <path id="DejaVuSans-33" d="M 2597 2516 
Q 3050 2419 3304 2112 
Q 3559 1806 3559 1356 
Q 3559 666 3084 287 
Q 2609 -91 1734 -91 
Q 1441 -91 1130 -33 
Q 819 25 488 141 
L 488 750 
Q 750 597 1062 519 
Q 1375 441 1716 441 
Q 2309 441 2620 675 
Q 2931 909 2931 1356 
Q 2931 1769 2642 2001 
Q 2353 2234 1838 2234 
L 1294 2234 
L 1294 2753 
L 1863 2753 
Q 2328 2753 2575 2939 
Q 2822 3125 2822 3475 
Q 2822 3834 2567 4026 
Q 2313 4219 1838 4219 
Q 1578 4219 1281 4162 
Q 984 4106 628 3988 
L 628 4550 
Q 988 4650 1302 4700 
Q 1616 4750 1894 4750 
Q 2613 4750 3031 4423 
Q 3450 4097 3450 3541 
Q 3450 3153 3228 2886 
Q 3006 2619 2597 2516 
z
" transform="scale(0.015625)"/>
       </defs>
       <use xlink:href="#DejaVuSans-33"/>
       <use xlink:href="#DejaVuSans-30" transform="translate(63.623047 0)"/>
       <use xlink:href="#DejaVuSans-30" transform="translate(127.246094 0)"/>
      </g>
     </g>
    </g>
    <g id="xtick_5">
     <g id="line2d_5">
      <g>
       <use xlink:href="#m083cedf5e3" x="529.805756" y="383.344125" style="stroke: #000000; stroke-width: 0.8"/>
      </g>
     </g>
     <g id="text_5">
      <!-- 400 -->
      <g transform="translate(520.262006 397.942563) scale(0.1 -0.1)">
       <defs>
        <path id="DejaVuSans-34" d="M 2419 4116 
L 825 1625 
L 2419 1625 
L 2419 4116 
z
M 2253 4666 
L 3047 4666 
L 3047 1625 
L 3713 1625 
L 3713 1100 
L 3047 1100 
L 3047 0 
L 2419 0 
L 2419 1100 
L 313 1100 
L 313 1709 
L 2253 4666 
z
" transform="scale(0.015625)"/>
       </defs>
       <use xlink:href="#DejaVuSans-34"/>
       <use xlink:href="#DejaVuSans-30" transform="translate(63.623047 0)"/>
       <use xlink:href="#DejaVuSans-30" transform="translate(127.246094 0)"/>
      </g>
     </g>
    </g>
    <g id="xtick_6">
     <g id="line2d_6">
      <g>
       <use xlink:href="#m083cedf5e3" x="639.103329" y="383.344125" style="stroke: #000000; stroke-width: 0.8"/>
      </g>
     </g>
     <g id="text_6">
      <!-- 500 -->
      <g transform="translate(629.559579 397.942563) scale(0.1 -0.1)">
       <defs>
        <path id="DejaVuSans-35" d="M 691 4666 
L 3169 4666 
L 3169 4134 
L 1269 4134 
L 1269 2991 
Q 1406 3038 1543 3061 
Q 1681 3084 1819 3084 
Q 2600 3084 3056 2656 
Q 3513 2228 3513 1497 
Q 3513 744 3044 326 
Q 2575 -91 1722 -91 
Q 1428 -91 1123 -41 
Q 819 9 494 109 
L 494 744 
Q 775 591 1075 516 
Q 1375 441 1709 441 
Q 2250 441 2565 725 
Q 2881 1009 2881 1497 
Q 2881 1984 2565 2268 
Q 2250 2553 1709 2553 
Q 1456 2553 1204 2497 
Q 953 2441 691 2322 
L 691 4666 
z
" transform="scale(0.015625)"/>
       </defs>
       <use xlink:href="#DejaVuSans-35"/>
       <use xlink:href="#DejaVuSans-30" transform="translate(63.623047 0)"/>
       <use xlink:href="#DejaVuSans-30" transform="translate(127.246094 0)"/>
      </g>
     </g>
    </g>
    <g id="xtick_7">
     <g id="line2d_7">
      <g>
       <use xlink:href="#m083cedf5e3" x="748.400902" y="383.344125" style="stroke: #000000; stroke-width: 0.8"/>
      </g>
     </g>
     <g id="text_7">
      <!-- 600 -->
      <g transform="translate(738.857152 397.942563) scale(0.1 -0.1)">
       <defs>
        <path id="DejaVuSans-36" d="M 2113 2584 
Q 1688 2584 1439 2293 
Q 1191 2003 1191 1497 
Q 1191 994 1439 701 
Q 1688 409 2113 409 
Q 2538 409 2786 701 
Q 3034 994 3034 1497 
Q 3034 2003 2786 2293 
Q 2538 2584 2113 2584 
z
M 3366 4563 
L 3366 3988 
Q 3128 4100 2886 4159 
Q 2644 4219 2406 4219 
Q 1781 4219 1451 3797 
Q 1122 3375 1075 2522 
Q 1259 2794 1537 2939 
Q 1816 3084 2150 3084 
Q 2853 3084 3261 2657 
Q 3669 2231 3669 1497 
Q 3669 778 3244 343 
Q 2819 -91 2113 -91 
Q 1303 -91 875 529 
Q 447 1150 447 2328 
Q 447 3434 972 4092 
Q 1497 4750 2381 4750 
Q 2619 4750 2861 4703 
Q 3103 4656 3366 4563 
z
" transform="scale(0.015625)"/>
       </defs>
       <use xlink:href="#DejaVuSans-36"/>
       <use xlink:href="#DejaVuSans-30" transform="translate(63.623047 0)"/>
       <use xlink:href="#DejaVuSans-30" transform="translate(127.246094 0)"/>
      </g>
     </g>
    </g>
    <g id="xtick_8">
     <g id="line2d_8">
      <g>
       <use xlink:href="#m083cedf5e3" x="857.698476" y="383.344125" style="stroke: #000000; stroke-width: 0.8"/>
      </g>
     </g>
     <g id="text_8">
      <!-- 700 -->
      <g transform="translate(848.154726 397.942563) scale(0.1 -0.1)">
       <defs>
        <path id="DejaVuSans-37" d="M 525 4666 
L 3525 4666 
L 3525 4397 
L 1831 0 
L 1172 0 
L 2766 4134 
L 525 4134 
L 525 4666 
z
" transform="scale(0.015625)"/>
       </defs>
       <use xlink:href="#DejaVuSans-37"/>
       <use xlink:href="#DejaVuSans-30" transform="translate(63.623047 0)"/>
       <use xlink:href="#DejaVuSans-30" transform="translate(127.246094 0)"/>
      </g>
     </g>
    </g>
    <g id="xtick_9">
     <g id="line2d_9">
      <g>
       <use xlink:href="#m083cedf5e3" x="966.996049" y="383.344125" style="stroke: #000000; stroke-width: 0.8"/>
      </g>
     </g>
     <g id="text_9">
      <!-- 800 -->
      <g transform="translate(957.452299 397.942563) scale(0.1 -0.1)">
       <defs>
        <path id="DejaVuSans-38" d="M 2034 2216 
Q 1584 2216 1326 1975 
Q 1069 1734 1069 1313 
Q 1069 891 1326 650 
Q 1584 409 2034 409 
Q 2484 409 2743 651 
Q 3003 894 3003 1313 
Q 3003 1734 2745 1975 
Q 2488 2216 2034 2216 
z
M 1403 2484 
Q 997 2584 770 2862 
Q 544 3141 544 3541 
Q 544 4100 942 4425 
Q 1341 4750 2034 4750 
Q 2731 4750 3128 4425 
Q 3525 4100 3525 3541 
Q 3525 3141 3298 2862 
Q 3072 2584 2669 2484 
Q 3125 2378 3379 2068 
Q 3634 1759 3634 1313 
Q 3634 634 3220 271 
Q 2806 -91 2034 -91 
Q 1263 -91 848 271 
Q 434 634 434 1313 
Q 434 1759 690 2068 
Q 947 2378 1403 2484 
z
M 1172 3481 
Q 1172 3119 1398 2916 
Q 1625 2713 2034 2713 
Q 2441 2713 2670 2916 
Q 2900 3119 2900 3481 
Q 2900 3844 2670 4047 
Q 2441 4250 2034 4250 
Q 1625 4250 1398 4047 
Q 1172 3844 1172 3481 
z
" transform="scale(0.015625)"/>
       </defs>
       <use xlink:href="#DejaVuSans-38"/>
       <use xlink:href="#DejaVuSans-30" transform="translate(63.623047 0)"/>
       <use xlink:href="#DejaVuSans-30" transform="translate(127.246094 0)"/>
      </g>
     </g>
    </g>
    <g id="text_10">
     <!-- Sequence Position -->
     <g transform="translate(459.129688 413.140375) scale(0.12 -0.12)">
      <defs>
       <path id="DejaVuSans-Bold-53" d="M 3834 4519 
L 3834 3531 
Q 3450 3703 3084 3790 
Q 2719 3878 2394 3878 
Q 1963 3878 1756 3759 
Q 1550 3641 1550 3391 
Q 1550 3203 1689 3098 
Q 1828 2994 2194 2919 
L 2706 2816 
Q 3484 2659 3812 2340 
Q 4141 2022 4141 1434 
Q 4141 663 3683 286 
Q 3225 -91 2284 -91 
Q 1841 -91 1394 -6 
Q 947 78 500 244 
L 500 1259 
Q 947 1022 1364 901 
Q 1781 781 2169 781 
Q 2563 781 2772 912 
Q 2981 1044 2981 1288 
Q 2981 1506 2839 1625 
Q 2697 1744 2272 1838 
L 1806 1941 
Q 1106 2091 782 2419 
Q 459 2747 459 3303 
Q 459 4000 909 4375 
Q 1359 4750 2203 4750 
Q 2588 4750 2994 4692 
Q 3400 4634 3834 4519 
z
" transform="scale(0.015625)"/>
       <path id="DejaVuSans-Bold-65" d="M 4031 1759 
L 4031 1441 
L 1416 1441 
Q 1456 1047 1700 850 
Q 1944 653 2381 653 
Q 2734 653 3104 758 
Q 3475 863 3866 1075 
L 3866 213 
Q 3469 63 3072 -14 
Q 2675 -91 2278 -91 
Q 1328 -91 801 392 
Q 275 875 275 1747 
Q 275 2603 792 3093 
Q 1309 3584 2216 3584 
Q 3041 3584 3536 3087 
Q 4031 2591 4031 1759 
z
M 2881 2131 
Q 2881 2450 2695 2645 
Q 2509 2841 2209 2841 
Q 1884 2841 1681 2658 
Q 1478 2475 1428 2131 
L 2881 2131 
z
" transform="scale(0.015625)"/>
       <path id="DejaVuSans-Bold-71" d="M 2181 2772 
Q 1825 2772 1636 2509 
Q 1447 2247 1447 1747 
Q 1447 1247 1636 984 
Q 1825 722 2181 722 
Q 2541 722 2730 984 
Q 2919 1247 2919 1747 
Q 2919 2247 2730 2509 
Q 2541 2772 2181 2772 
z
M 2919 506 
Q 2688 197 2409 53 
Q 2131 -91 1766 -91 
Q 1119 -91 703 423 
Q 288 938 288 1747 
Q 288 2556 703 3067 
Q 1119 3578 1766 3578 
Q 2131 3578 2409 3434 
Q 2688 3291 2919 2981 
L 2919 3500 
L 4044 3500 
L 4044 -1331 
L 2919 -1331 
L 2919 506 
z
" transform="scale(0.015625)"/>
       <path id="DejaVuSans-Bold-75" d="M 500 1363 
L 500 3500 
L 1625 3500 
L 1625 3150 
Q 1625 2866 1622 2436 
Q 1619 2006 1619 1863 
Q 1619 1441 1641 1255 
Q 1663 1069 1716 984 
Q 1784 875 1895 815 
Q 2006 756 2150 756 
Q 2500 756 2700 1025 
Q 2900 1294 2900 1772 
L 2900 3500 
L 4019 3500 
L 4019 0 
L 2900 0 
L 2900 506 
Q 2647 200 2364 54 
Q 2081 -91 1741 -91 
Q 1134 -91 817 281 
Q 500 653 500 1363 
z
" transform="scale(0.015625)"/>
       <path id="DejaVuSans-Bold-6e" d="M 4056 2131 
L 4056 0 
L 2931 0 
L 2931 347 
L 2931 1631 
Q 2931 2084 2911 2256 
Q 2891 2428 2841 2509 
Q 2775 2619 2662 2680 
Q 2550 2741 2406 2741 
Q 2056 2741 1856 2470 
Q 1656 2200 1656 1722 
L 1656 0 
L 538 0 
L 538 3500 
L 1656 3500 
L 1656 2988 
Q 1909 3294 2193 3439 
Q 2478 3584 2822 3584 
Q 3428 3584 3742 3212 
Q 4056 2841 4056 2131 
z
" transform="scale(0.015625)"/>
       <path id="DejaVuSans-Bold-63" d="M 3366 3391 
L 3366 2478 
Q 3138 2634 2908 2709 
Q 2678 2784 2431 2784 
Q 1963 2784 1702 2511 
Q 1441 2238 1441 1747 
Q 1441 1256 1702 982 
Q 1963 709 2431 709 
Q 2694 709 2930 787 
Q 3166 866 3366 1019 
L 3366 103 
Q 3103 6 2833 -42 
Q 2563 -91 2291 -91 
Q 1344 -91 809 395 
Q 275 881 275 1747 
Q 275 2613 809 3098 
Q 1344 3584 2291 3584 
Q 2566 3584 2833 3536 
Q 3100 3488 3366 3391 
z
" transform="scale(0.015625)"/>
       <path id="DejaVuSans-Bold-20" transform="scale(0.015625)"/>
       <path id="DejaVuSans-Bold-50" d="M 588 4666 
L 2584 4666 
Q 3475 4666 3951 4270 
Q 4428 3875 4428 3144 
Q 4428 2409 3951 2014 
Q 3475 1619 2584 1619 
L 1791 1619 
L 1791 0 
L 588 0 
L 588 4666 
z
M 1791 3794 
L 1791 2491 
L 2456 2491 
Q 2806 2491 2997 2661 
Q 3188 2831 3188 3144 
Q 3188 3456 2997 3625 
Q 2806 3794 2456 3794 
L 1791 3794 
z
" transform="scale(0.015625)"/>
       <path id="DejaVuSans-Bold-6f" d="M 2203 2784 
Q 1831 2784 1636 2517 
Q 1441 2250 1441 1747 
Q 1441 1244 1636 976 
Q 1831 709 2203 709 
Q 2569 709 2762 976 
Q 2956 1244 2956 1747 
Q 2956 2250 2762 2517 
Q 2569 2784 2203 2784 
z
M 2203 3584 
Q 3106 3584 3614 3096 
Q 4122 2609 4122 1747 
Q 4122 884 3614 396 
Q 3106 -91 2203 -91 
Q 1297 -91 786 396 
Q 275 884 275 1747 
Q 275 2609 786 3096 
Q 1297 3584 2203 3584 
z
" transform="scale(0.015625)"/>
       <path id="DejaVuSans-Bold-73" d="M 3272 3391 
L 3272 2541 
Q 2913 2691 2578 2766 
Q 2244 2841 1947 2841 
Q 1628 2841 1473 2761 
Q 1319 2681 1319 2516 
Q 1319 2381 1436 2309 
Q 1553 2238 1856 2203 
L 2053 2175 
Q 2913 2066 3209 1816 
Q 3506 1566 3506 1031 
Q 3506 472 3093 190 
Q 2681 -91 1863 -91 
Q 1516 -91 1145 -36 
Q 775 19 384 128 
L 384 978 
Q 719 816 1070 734 
Q 1422 653 1784 653 
Q 2113 653 2278 743 
Q 2444 834 2444 1013 
Q 2444 1163 2330 1236 
Q 2216 1309 1875 1350 
L 1678 1375 
Q 931 1469 631 1722 
Q 331 1975 331 2491 
Q 331 3047 712 3315 
Q 1094 3584 1881 3584 
Q 2191 3584 2531 3537 
Q 2872 3491 3272 3391 
z
" transform="scale(0.015625)"/>
       <path id="DejaVuSans-Bold-69" d="M 538 3500 
L 1656 3500 
L 1656 0 
L 538 0 
L 538 3500 
z
M 538 4863 
L 1656 4863 
L 1656 3950 
L 538 3950 
L 538 4863 
z
" transform="scale(0.015625)"/>
       <path id="DejaVuSans-Bold-74" d="M 1759 4494 
L 1759 3500 
L 2913 3500 
L 2913 2700 
L 1759 2700 
L 1759 1216 
Q 1759 972 1856 886 
Q 1953 800 2241 800 
L 2816 800 
L 2816 0 
L 1856 0 
Q 1194 0 917 276 
Q 641 553 641 1216 
L 641 2700 
L 84 2700 
L 84 3500 
L 641 3500 
L 641 4494 
L 1759 4494 
z
" transform="scale(0.015625)"/>
      </defs>
      <use xlink:href="#DejaVuSans-Bold-53"/>
      <use xlink:href="#DejaVuSans-Bold-65" transform="translate(72.021484 0)"/>
      <use xlink:href="#DejaVuSans-Bold-71" transform="translate(139.84375 0)"/>
      <use xlink:href="#DejaVuSans-Bold-75" transform="translate(211.425781 0)"/>
      <use xlink:href="#DejaVuSans-Bold-65" transform="translate(282.617188 0)"/>
      <use xlink:href="#DejaVuSans-Bold-6e" transform="translate(350.439453 0)"/>
      <use xlink:href="#DejaVuSans-Bold-63" transform="translate(421.630859 0)"/>
      <use xlink:href="#DejaVuSans-Bold-65" transform="translate(480.908203 0)"/>
      <use xlink:href="#DejaVuSans-Bold-20" transform="translate(548.730469 0)"/>
      <use xlink:href="#DejaVuSans-Bold-50" transform="translate(583.544922 0)"/>
      <use xlink:href="#DejaVuSans-Bold-6f" transform="translate(656.835938 0)"/>
      <use xlink:href="#DejaVuSans-Bold-73" transform="translate(725.537109 0)"/>
      <use xlink:href="#DejaVuSans-Bold-69" transform="translate(785.058594 0)"/>
      <use xlink:href="#DejaVuSans-Bold-74" transform="translate(819.335938 0)"/>
      <use xlink:href="#DejaVuSans-Bold-69" transform="translate(867.138672 0)"/>
      <use xlink:href="#DejaVuSans-Bold-6f" transform="translate(901.416016 0)"/>
      <use xlink:href="#DejaVuSans-Bold-6e" transform="translate(970.117188 0)"/>
     </g>
    </g>
   </g>
   <g id="matplotlib.axis_2">
    <g id="ytick_1">
     <g id="line2d_10">
      <defs>
       <path id="mb596d66a38" d="M 0 0 
L -3.5 0 
" style="stroke: #000000; stroke-width: 0.8"/>
      </defs>
      <g>
       <use xlink:href="#mb596d66a38" x="50.918438" y="364.505062" style="stroke: #000000; stroke-width: 0.8"/>
      </g>
     </g>
     <g id="text_11">
      <!-- −15 -->
      <g transform="translate(22.81375 368.304281) scale(0.1 -0.1)">
       <defs>
        <path id="DejaVuSans-2212" d="M 678 2272 
L 4684 2272 
L 4684 1741 
L 678 1741 
L 678 2272 
z
" transform="scale(0.015625)"/>
       </defs>
       <use xlink:href="#DejaVuSans-2212"/>
       <use xlink:href="#DejaVuSans-31" transform="translate(83.789062 0)"/>
       <use xlink:href="#DejaVuSans-35" transform="translate(147.412109 0)"/>
      </g>
     </g>
    </g>
    <g id="ytick_2">
     <g id="line2d_11">
      <g>
       <use xlink:href="#mb596d66a38" x="50.918438" y="309.246041" style="stroke: #000000; stroke-width: 0.8"/>
      </g>
     </g>
     <g id="text_12">
      <!-- −10 -->
      <g transform="translate(22.81375 313.04526) scale(0.1 -0.1)">
       <use xlink:href="#DejaVuSans-2212"/>
       <use xlink:href="#DejaVuSans-31" transform="translate(83.789062 0)"/>
       <use xlink:href="#DejaVuSans-30" transform="translate(147.412109 0)"/>
      </g>
     </g>
    </g>
    <g id="ytick_3">
     <g id="line2d_12">
      <g>
       <use xlink:href="#mb596d66a38" x="50.918438" y="253.98702" style="stroke: #000000; stroke-width: 0.8"/>
      </g>
     </g>
     <g id="text_13">
      <!-- −5 -->
      <g transform="translate(29.17625 257.786239) scale(0.1 -0.1)">
       <use xlink:href="#DejaVuSans-2212"/>
       <use xlink:href="#DejaVuSans-35" transform="translate(83.789062 0)"/>
      </g>
     </g>
    </g>
    <g id="ytick_4">
     <g id="line2d_13">
      <g>
       <use xlink:href="#mb596d66a38" x="50.918438" y="198.728" style="stroke: #000000; stroke-width: 0.8"/>
      </g>
     </g>
     <g id="text_14">
      <!-- 0 -->
      <g transform="translate(37.555937 202.527218) scale(0.1 -0.1)">
       <use xlink:href="#DejaVuSans-30"/>
      </g>
     </g>
    </g>
    <g id="ytick_5">
     <g id="line2d_14">
      <g>
       <use xlink:href="#mb596d66a38" x="50.918438" y="143.468979" style="stroke: #000000; stroke-width: 0.8"/>
      </g>
     </g>
     <g id="text_15">
      <!-- 5 -->
      <g transform="translate(37.555937 147.268198) scale(0.1 -0.1)">
       <use xlink:href="#DejaVuSans-35"/>
      </g>
     </g>
    </g>
    <g id="ytick_6">
     <g id="line2d_15">
      <g>
       <use xlink:href="#mb596d66a38" x="50.918438" y="88.209958" style="stroke: #000000; stroke-width: 0.8"/>
      </g>
     </g>
     <g id="text_16">
      <!-- 10 -->
      <g transform="translate(31.193438 92.009177) scale(0.1 -0.1)">
       <use xlink:href="#DejaVuSans-31"/>
       <use xlink:href="#DejaVuSans-30" transform="translate(63.623047 0)"/>
      </g>
     </g>
    </g>
    <g id="text_17">
     <!-- Score (L22) -->
     <g transform="translate(16.318125 250.258188) rotate(-90) scale(0.12 -0.12)">
      <defs>
       <path id="DejaVuSans-Bold-72" d="M 3138 2547 
Q 2991 2616 2845 2648 
Q 2700 2681 2553 2681 
Q 2122 2681 1889 2404 
Q 1656 2128 1656 1613 
L 1656 0 
L 538 0 
L 538 3500 
L 1656 3500 
L 1656 2925 
Q 1872 3269 2151 3426 
Q 2431 3584 2822 3584 
Q 2878 3584 2943 3579 
Q 3009 3575 3134 3559 
L 3138 2547 
z
" transform="scale(0.015625)"/>
       <path id="DejaVuSans-Bold-28" d="M 2413 -844 
L 1484 -844 
Q 1006 -72 778 623 
Q 550 1319 550 2003 
Q 550 2688 779 3389 
Q 1009 4091 1484 4856 
L 2413 4856 
Q 2013 4116 1813 3408 
Q 1613 2700 1613 2009 
Q 1613 1319 1811 609 
Q 2009 -100 2413 -844 
z
" transform="scale(0.015625)"/>
       <path id="DejaVuSans-Bold-4c" d="M 588 4666 
L 1791 4666 
L 1791 909 
L 3903 909 
L 3903 0 
L 588 0 
L 588 4666 
z
" transform="scale(0.015625)"/>
       <path id="DejaVuSans-Bold-32" d="M 1844 884 
L 3897 884 
L 3897 0 
L 506 0 
L 506 884 
L 2209 2388 
Q 2438 2594 2547 2791 
Q 2656 2988 2656 3200 
Q 2656 3528 2436 3728 
Q 2216 3928 1850 3928 
Q 1569 3928 1234 3808 
Q 900 3688 519 3450 
L 519 4475 
Q 925 4609 1322 4679 
Q 1719 4750 2100 4750 
Q 2938 4750 3402 4381 
Q 3866 4013 3866 3353 
Q 3866 2972 3669 2642 
Q 3472 2313 2841 1759 
L 1844 884 
z
" transform="scale(0.015625)"/>
       <path id="DejaVuSans-Bold-29" d="M 513 -844 
Q 913 -100 1113 609 
Q 1313 1319 1313 2009 
Q 1313 2700 1113 3408 
Q 913 4116 513 4856 
L 1441 4856 
Q 1916 4091 2145 3389 
Q 2375 2688 2375 2003 
Q 2375 1319 2147 623 
Q 1919 -72 1441 -844 
L 513 -844 
z
" transform="scale(0.015625)"/>
      </defs>
      <use xlink:href="#DejaVuSans-Bold-53"/>
      <use xlink:href="#DejaVuSans-Bold-63" transform="translate(72.021484 0)"/>
      <use xlink:href="#DejaVuSans-Bold-6f" transform="translate(131.298828 0)"/>
      <use xlink:href="#DejaVuSans-Bold-72" transform="translate(200 0)"/>
      <use xlink:href="#DejaVuSans-Bold-65" transform="translate(249.316406 0)"/>
      <use xlink:href="#DejaVuSans-Bold-20" transform="translate(317.138672 0)"/>
      <use xlink:href="#DejaVuSans-Bold-28" transform="translate(351.953125 0)"/>
      <use xlink:href="#DejaVuSans-Bold-4c" transform="translate(397.65625 0)"/>
      <use xlink:href="#DejaVuSans-Bold-32" transform="translate(461.376953 0)"/>
      <use xlink:href="#DejaVuSans-Bold-32" transform="translate(530.957031 0)"/>
      <use xlink:href="#DejaVuSans-Bold-29" transform="translate(600.537109 0)"/>
     </g>
    </g>
   </g>
   <g id="line2d_16">
    <path d="M 93.708438 274.5527 
L 113.382001 274.369425 
L 142.892346 273.993914 
L 149.4502 274.232863 
L 154.915079 274.668573 
L 159.286982 275.211396 
L 163.658884 275.948105 
L 168.030787 276.885992 
L 172.40269 278.017871 
L 177.867569 279.669892 
L 184.425423 281.90029 
L 203.006011 288.3755 
L 210.656841 290.700504 
L 218.307671 292.781601 
L 227.051477 294.90533 
L 234.702307 296.527821 
L 241.260162 297.683643 
L 246.72504 298.430909 
L 252.189919 298.949289 
L 257.654798 299.227954 
L 263.119676 299.281726 
L 269.677531 299.110338 
L 289.351094 298.346555 
L 294.815973 298.467017 
L 299.187876 298.765263 
L 303.559778 299.264781 
L 307.931681 299.97161 
L 312.303584 300.878672 
L 317.768463 302.265901 
L 323.233342 303.888274 
L 329.791196 306.077078 
L 336.349051 308.479594 
L 342.906905 311.089381 
L 349.464759 313.933916 
L 356.022614 317.030848 
L 363.673444 320.903923 
L 375.696177 327.037405 
L 381.161056 329.570236 
L 385.532959 331.387293 
L 389.904862 332.986732 
L 394.276764 334.357779 
L 398.648667 335.504303 
L 403.02057 336.439304 
L 407.392473 337.178118 
L 411.764376 337.731888 
L 416.136279 338.10275 
L 420.508182 338.281812 
L 424.880085 338.248939 
L 429.251988 337.977618 
L 433.623891 337.439226 
L 437.995794 336.609882 
L 441.274721 335.788643 
L 445.646624 334.428567 
L 450.018527 332.78137 
L 454.39043 330.880065 
L 459.855309 328.215928 
L 466.413163 324.727822 
L 475.156969 319.804107 
L 484.99375 314.023918 
L 492.644581 309.301419 
L 501.388386 303.633112 
L 517.783022 292.916978 
L 524.340877 288.941624 
L 530.898731 285.227919 
L 538.549561 281.186189 
L 546.200392 277.409089 
L 552.758246 274.413384 
L 558.223125 272.163754 
L 562.595028 270.585629 
L 566.96693 269.25115 
L 571.338833 268.194367 
L 575.710736 267.434507 
L 580.082639 266.972721 
L 584.454542 266.79177 
L 588.826445 266.858345 
L 594.291324 267.220194 
L 600.849178 267.929708 
L 625.98762 270.9589 
L 635.824402 271.771643 
L 647.847135 272.519179 
L 659.869868 273.048594 
L 669.70665 273.269455 
L 676.264504 273.23174 
L 681.729383 273.003745 
L 686.101286 272.620867 
L 690.473188 271.979216 
L 693.752116 271.270993 
L 697.031043 270.314287 
L 700.30997 269.057109 
L 702.495922 268.025549 
L 704.681873 266.820835 
L 706.867824 265.428137 
L 709.053776 263.834104 
L 711.239727 262.027475 
L 713.425679 259.999655 
L 715.61163 257.745259 
L 717.797582 255.26255 
L 721.076509 251.116395 
L 724.355436 246.487388 
L 727.634363 241.420493 
L 730.913291 235.977951 
L 735.285194 228.266834 
L 741.843048 216.111308 
L 758.237684 185.446649 
L 772.446369 159.581201 
L 779.004223 147.963243 
L 783.376126 140.587665 
L 786.655053 135.390391 
L 789.93398 130.58628 
L 793.212907 126.269835 
L 795.398859 123.706181 
L 797.58481 121.419603 
L 799.770762 119.427929 
L 801.956713 117.744421 
L 804.142665 116.377355 
L 806.328616 115.329789 
L 808.514568 114.599536 
L 810.700519 114.179315 
L 812.886471 114.057078 
L 815.072422 114.216477 
L 817.258374 114.637462 
L 819.444325 115.296973 
L 821.630277 116.169695 
L 823.816228 117.228853 
L 827.095155 119.108291 
L 830.374082 121.253763 
L 834.745985 124.382175 
L 854.419549 138.870041 
L 862.070379 144.01894 
L 869.721209 148.876547 
L 876.279063 152.767718 
L 881.743942 155.73328 
L 886.115845 157.866238 
L 890.487748 159.746571 
L 894.859651 161.350812 
L 899.231554 162.672341 
L 903.603457 163.721791 
L 907.97536 164.524307 
L 912.347263 165.114831 
L 917.812141 165.614587 
L 919.998093 165.755926 
L 919.998093 165.755926 
" clip-path="url(#pe81e457b8f)" style="fill: none; stroke: #ff0000; stroke-opacity: 0.9; stroke-width: 2.5; stroke-linecap: square"/>
   </g>
   <g id="line2d_17">
    <path d="M 93.708438 354.207847 
L 100.266292 353.640099 
L 106.824146 352.854162 
L 113.382001 351.857185 
L 122.125807 350.292957 
L 135.241515 347.941592 
L 140.706394 347.169872 
L 146.171273 346.628265 
L 150.543176 346.40374 
L 154.915079 346.394324 
L 159.286982 346.620062 
L 163.658884 347.09176 
L 168.030787 347.809406 
L 172.40269 348.759535 
L 176.774593 349.914501 
L 182.239472 351.582401 
L 193.169229 355.251383 
L 199.727084 357.342974 
L 205.191962 358.849792 
L 209.563865 359.834349 
L 213.935768 360.58296 
L 218.307671 361.069321 
L 222.679574 361.278112 
L 227.051477 361.20623 
L 231.42338 360.864076 
L 235.795283 360.276357 
L 240.167186 359.481539 
L 245.632065 358.273792 
L 266.398604 353.420849 
L 271.863482 352.501085 
L 277.328361 351.827001 
L 282.79324 351.406647 
L 288.258118 351.229885 
L 293.722997 351.273513 
L 300.280851 351.571825 
L 307.931681 352.178375 
L 317.768463 353.219383 
L 329.791196 354.722009 
L 339.627978 356.144925 
L 348.371784 357.632874 
L 357.115589 359.363097 
L 383.347007 364.816036 
L 389.904862 365.822432 
L 396.462716 366.591817 
L 403.02057 367.134728 
L 410.6714 367.523196 
L 419.415206 367.709793 
L 428.159012 367.672837 
L 436.902818 367.430597 
L 445.646624 366.986761 
L 455.483406 366.272969 
L 471.878042 364.810401 
L 487.179702 363.526036 
L 509.039217 361.813841 
L 514.504095 361.10384 
L 518.875998 360.315742 
L 523.247901 359.26253 
L 526.526828 358.262692 
L 529.805756 357.060218 
L 533.084683 355.641226 
L 536.36361 354.000312 
L 539.642537 352.141656 
L 544.01444 349.350976 
L 548.386343 346.260829 
L 553.851222 342.111722 
L 565.873955 332.858539 
L 570.245858 329.790784 
L 574.617761 327.029155 
L 577.896688 325.201869 
L 581.175615 323.610059 
L 584.454542 322.27142 
L 587.733469 321.198071 
L 591.012397 320.396438 
L 594.291324 319.867182 
L 597.570251 319.604907 
L 600.849178 319.598152 
L 604.128105 319.829577 
L 607.407033 320.276465 
L 610.68596 320.911552 
L 615.057863 321.997796 
L 620.522741 323.630522 
L 641.28928 330.234131 
L 646.754159 331.585693 
L 651.126062 332.461106 
L 655.497965 333.136133 
L 659.869868 333.603083 
L 664.241771 333.861767 
L 668.613674 333.918925 
L 672.985577 333.787463 
L 678.450455 333.38485 
L 683.915334 332.755475 
L 690.473188 331.767112 
L 699.216994 330.190344 
L 721.076509 325.891054 
L 729.820315 324.043533 
L 736.378169 322.427381 
L 741.843048 320.833141 
L 747.307927 318.969671 
L 752.772805 316.848485 
L 761.516611 313.140742 
L 768.074466 310.453974 
L 772.446369 308.901192 
L 775.725296 307.932441 
L 779.004223 307.17054 
L 782.28315 306.639647 
L 785.562077 306.352239 
L 788.841005 306.307978 
L 792.119932 306.493403 
L 795.398859 306.882387 
L 799.770762 307.650116 
L 813.979446 310.499159 
L 817.258374 310.791154 
L 819.444325 310.812746 
L 821.630277 310.663022 
L 823.816228 310.313464 
L 826.00218 309.735701 
L 828.188131 308.90196 
L 830.374082 307.785652 
L 832.560034 306.361637 
L 834.745985 304.607213 
L 836.931937 302.50295 
L 839.117888 300.032609 
L 841.30384 297.183836 
L 843.489791 293.94852 
L 845.675743 290.323015 
L 847.861694 286.308236 
L 850.047646 281.909608 
L 852.233597 277.136887 
L 855.512524 269.307721 
L 858.791452 260.730404 
L 862.070379 251.481203 
L 865.349306 241.648289 
L 869.721209 227.797375 
L 875.186088 209.6389 
L 891.580724 154.339585 
L 895.952627 140.573527 
L 900.324529 127.639356 
L 903.603457 118.581983 
L 906.882384 110.132367 
L 910.161311 102.324269 
L 913.440238 95.17629 
L 916.719165 88.69315 
L 919.998093 82.867695 
L 923.27702 77.683019 
L 925.462971 74.570467 
L 927.648923 71.722688 
L 929.834874 69.129611 
L 932.020826 66.780276 
L 934.206777 64.662959 
L 936.392729 62.765294 
L 938.57868 61.074379 
L 940.764632 59.576885 
L 944.043559 57.663418 
L 947.322486 56.108309 
L 949.508438 55.247761 
L 949.508438 55.247761 
" clip-path="url(#pe81e457b8f)" style="fill: none; stroke: #0000ff; stroke-opacity: 0.9; stroke-width: 2.5; stroke-linecap: square"/>
   </g>
   <g id="line2d_18">
    <path d="M 93.708438 334.141457 
L 103.545219 334.541123 
L 111.196049 335.058148 
L 118.846879 335.804471 
L 125.404734 336.655166 
L 131.962588 337.719308 
L 138.520443 339.004346 
L 145.078297 340.500244 
L 152.729127 342.463057 
L 180.053521 349.711402 
L 187.704351 351.390095 
L 195.355181 352.860811 
L 204.098987 354.307685 
L 211.749817 355.363291 
L 218.307671 356.073669 
L 223.77255 356.483733 
L 229.237429 356.681423 
L 234.702307 356.621487 
L 239.07421 356.362097 
L 243.446113 355.900306 
L 247.818016 355.230358 
L 252.189919 354.353826 
L 256.561822 353.279218 
L 262.026701 351.678276 
L 267.491579 349.823983 
L 274.049434 347.326862 
L 282.79324 343.694631 
L 295.908948 338.222902 
L 301.373827 336.184552 
L 305.74573 334.743807 
L 310.117633 333.512215 
L 314.489536 332.520641 
L 318.861439 331.79402 
L 323.233342 331.351869 
L 326.512269 331.215801 
L 329.791196 331.252103 
L 333.070123 331.462998 
L 336.349051 331.848063 
L 339.627978 332.404675 
L 343.999881 333.403357 
L 348.371784 334.674458 
L 352.743687 336.186247 
L 358.208565 338.353697 
L 364.76642 341.241993 
L 382.254031 349.142441 
L 386.625934 350.8317 
L 390.997837 352.272539 
L 394.276764 353.150952 
L 397.555692 353.82921 
L 400.834619 354.288307 
L 404.113546 354.515495 
L 407.392473 354.505318 
L 410.6714 354.260235 
L 413.950328 353.790522 
L 417.229255 353.113401 
L 421.601158 351.928459 
L 425.973061 350.481804 
L 431.437939 348.414588 
L 442.367697 343.932393 
L 450.018527 340.92698 
L 455.483406 339.017861 
L 459.855309 337.694719 
L 464.227211 336.590194 
L 468.599114 335.730912 
L 472.971017 335.136035 
L 477.34292 334.815496 
L 481.714823 334.770004 
L 486.086726 334.992439 
L 490.458629 335.467346 
L 494.830532 336.171763 
L 500.295411 337.326452 
L 506.853265 339.002257 
L 519.968974 342.509371 
L 524.340877 343.445422 
L 528.71278 344.133483 
L 531.991707 344.445986 
L 535.270634 344.558802 
L 538.549561 344.455902 
L 541.828489 344.12806 
L 545.107416 343.57287 
L 548.386343 342.793703 
L 551.66527 341.79939 
L 554.944197 340.603153 
L 559.3161 338.723328 
L 563.688003 336.561539 
L 569.152882 333.545305 
L 575.710736 329.632115 
L 586.640494 323.051242 
L 592.105372 320.046068 
L 596.477275 317.884571 
L 600.849178 315.959416 
L 605.221081 314.253887 
L 611.778936 311.960307 
L 618.33679 309.633732 
L 621.615717 308.296841 
L 624.894644 306.747813 
L 628.173572 304.913709 
L 631.452499 302.724378 
L 633.63845 301.035371 
L 635.824402 299.1425 
L 638.010353 297.03003 
L 640.196305 294.683882 
L 642.382256 292.091818 
L 644.568208 289.242934 
L 646.754159 286.128242 
L 648.940111 282.740469 
L 652.219038 277.135286 
L 655.497965 270.893436 
L 658.776892 264.015861 
L 662.055819 256.517554 
L 665.334747 248.432093 
L 668.613674 239.808692 
L 672.985577 227.602319 
L 678.450455 211.545954 
L 689.380213 179.149966 
L 693.752116 167.09617 
L 697.031043 158.732155 
L 700.30997 151.099462 
L 702.495922 146.477639 
L 704.681873 142.267224 
L 706.867824 138.497625 
L 709.053776 135.195543 
L 711.239727 132.385191 
L 713.425679 130.088261 
L 715.61163 128.324031 
L 716.704606 127.647023 
L 717.797582 127.109279 
L 718.890558 126.712471 
L 719.983533 126.458083 
L 721.076509 126.347399 
L 722.169485 126.381482 
L 723.26246 126.561165 
L 724.355436 126.887028 
L 725.448412 127.359383 
L 726.541388 127.97826 
L 727.634363 128.743411 
L 728.727339 129.654232 
L 730.913291 131.908803 
L 733.099242 134.730323 
L 735.285194 138.101314 
L 737.471145 141.99833 
L 739.657097 146.392258 
L 741.843048 151.248289 
L 744.028999 156.526183 
L 747.307927 165.136802 
L 750.586854 174.43541 
L 754.958757 187.60962 
L 762.609587 211.688754 
L 769.167441 232.157642 
L 773.539344 245.217734 
L 777.911247 257.559753 
L 781.190174 266.243932 
L 784.469102 274.375232 
L 787.748029 281.909239 
L 791.026956 288.812409 
L 794.305883 295.062636 
L 797.58481 300.650299 
L 799.770762 304.008599 
L 801.956713 307.078108 
L 804.142665 309.865658 
L 806.328616 312.38056 
L 808.514568 314.634038 
L 810.700519 316.638906 
L 812.886471 318.409613 
L 815.072422 319.961605 
L 817.258374 321.310919 
L 819.444325 322.473786 
L 822.723252 323.903505 
L 826.00218 325.001568 
L 829.281107 325.815247 
L 832.560034 326.386284 
L 835.838961 326.749948 
L 839.117888 326.933917 
L 843.489791 326.939614 
L 847.861694 326.707758 
L 852.233597 326.264147 
L 856.6055 325.626679 
L 862.070379 324.579566 
L 867.535257 323.284156 
L 874.093112 321.462342 
L 882.836918 318.755669 
L 895.952627 314.691156 
L 902.510481 312.883281 
L 909.068335 311.307568 
L 915.62619 309.985777 
L 922.184044 308.917733 
L 928.741899 308.089769 
L 935.299753 307.47858 
L 942.950583 306.997295 
L 946.22951 306.853652 
L 946.22951 306.853652 
" clip-path="url(#pe81e457b8f)" style="fill: none; stroke: #00ff00; stroke-opacity: 0.9; stroke-width: 2.5; stroke-linecap: square"/>
   </g>
   <g id="line2d_19">
    <path d="M 93.708438 334.886918 
L 134.14854 334.78721 
L 142.892346 334.540924 
L 148.357224 334.192033 
L 152.729127 333.722718 
L 157.10103 333.005808 
L 160.379957 332.25322 
L 163.658884 331.271483 
L 166.937812 330.019269 
L 170.216739 328.457538 
L 173.495666 326.553049 
L 176.774593 324.282162 
L 180.053521 321.634533 
L 183.332448 318.616227 
L 186.611375 315.251776 
L 189.890302 311.584787 
L 194.262205 306.333523 
L 209.563865 287.45943 
L 212.842793 283.887291 
L 216.12172 280.634312 
L 219.400647 277.736285 
L 222.679574 275.2098 
L 225.958501 273.05475 
L 229.237429 271.25358 
L 232.516356 269.775249 
L 235.795283 268.578371 
L 239.07421 267.614121 
L 243.446113 266.59649 
L 251.096943 265.158482 
L 256.561822 264.014973 
L 259.840749 263.122938 
L 263.119676 261.978935 
L 265.305628 261.034105 
L 267.491579 259.912956 
L 269.677531 258.588971 
L 271.863482 257.035972 
L 274.049434 255.228814 
L 276.235385 253.14421 
L 278.421337 250.761632 
L 280.607288 248.064274 
L 282.79324 245.040015 
L 284.979191 241.682332 
L 287.165142 237.991107 
L 289.351094 233.973951 
L 292.630021 227.36893 
L 295.908948 220.143358 
L 299.187876 212.414398 
L 304.652754 198.828065 
L 312.303584 179.711663 
L 315.582512 171.982613 
L 318.861439 164.756923 
L 322.140366 158.151764 
L 324.326317 154.134448 
L 326.512269 150.443412 
L 328.69822 147.086059 
L 330.884172 144.062333 
L 333.070123 141.365802 
L 335.256075 138.984464 
L 337.442026 136.901674 
L 339.627978 135.097122 
L 341.813929 133.547805 
L 343.999881 132.228953 
L 346.185832 131.11487 
L 349.464759 129.771116 
L 352.743687 128.744567 
L 356.022614 127.954823 
L 360.394517 127.143638 
L 374.603201 124.761059 
L 378.975104 123.665216 
L 382.254031 122.625392 
L 385.532959 121.364813 
L 388.811886 119.861375 
L 392.090813 118.102848 
L 395.36974 116.089764 
L 398.648667 113.833851 
L 403.02057 110.493558 
L 408.485449 105.926986 
L 420.508182 95.612878 
L 424.880085 92.219688 
L 428.159012 89.915343 
L 431.437939 87.851947 
L 434.716867 86.046647 
L 437.995794 84.503225 
L 441.274721 83.215612 
L 444.553648 82.16969 
L 447.832575 81.346291 
L 451.111503 80.724397 
L 454.39043 80.284264 
L 458.762333 79.954106 
L 463.134236 79.902267 
L 466.413163 80.051139 
L 469.69209 80.37818 
L 472.971017 80.910338 
L 476.249945 81.684437 
L 479.528872 82.745532 
L 481.714823 83.637241 
L 483.900775 84.694588 
L 486.086726 85.932995 
L 488.272678 87.367 
L 490.458629 89.009556 
L 492.644581 90.871288 
L 494.830532 92.959779 
L 497.016483 95.278887 
L 499.202435 97.828164 
L 502.481362 102.071347 
L 505.760289 106.780215 
L 509.039217 111.889557 
L 513.411119 119.168181 
L 526.526828 141.555005 
L 529.805756 146.642071 
L 533.084683 151.323945 
L 536.36361 155.537627 
L 539.642537 159.248412 
L 541.828489 161.435833 
L 544.01444 163.396756 
L 546.200392 165.138267 
L 548.386343 166.671116 
L 550.572294 168.009106 
L 553.851222 169.686796 
L 557.130149 171.025178 
L 560.409076 172.092094 
L 564.780979 173.214967 
L 578.989664 176.496924 
L 582.268591 177.626103 
L 585.547518 179.064481 
L 587.733469 180.236048 
L 589.919421 181.605769 
L 592.105372 183.196498 
L 594.291324 185.029311 
L 596.477275 187.122736 
L 598.663227 189.491938 
L 600.849178 192.147897 
L 603.03513 195.096617 
L 605.221081 198.338436 
L 607.407033 201.866697 
L 610.68596 207.668744 
L 613.964887 214.017592 
L 618.33679 223.151722 
L 624.894644 237.619341 
L 630.359523 249.572049 
L 634.731426 258.549162 
L 638.010353 264.738354 
L 641.28928 270.355344 
L 643.475232 273.751535 
L 645.661183 276.85693 
L 647.847135 279.668295 
L 650.033086 282.18853 
L 652.219038 284.425842 
L 654.404989 286.392981 
L 656.590941 288.10641 
L 658.776892 289.585455 
L 660.962844 290.851472 
L 663.148795 291.927084 
L 666.427722 293.2343 
L 669.70665 294.243382 
L 672.985577 295.029567 
L 677.35748 295.85256 
L 689.380213 297.920608 
L 693.752116 298.984366 
L 697.031043 300.00352 
L 700.30997 301.257738 
L 703.588897 302.780725 
L 706.867824 304.597132 
L 710.146752 306.720033 
L 713.425679 309.147725 
L 716.704606 311.864563 
L 719.983533 314.839146 
L 724.355436 319.121563 
L 732.006266 327.050224 
L 737.471145 332.611258 
L 741.843048 336.744786 
L 745.121975 339.571632 
L 748.400902 342.119449 
L 751.67983 344.365035 
L 754.958757 346.30032 
L 758.237684 347.93135 
L 761.516611 349.275777 
L 764.795538 350.359916 
L 768.074466 351.215659 
L 771.353393 351.877573 
L 775.725296 352.518535 
L 781.190174 353.038849 
L 787.748029 353.418657 
L 807.421592 354.389199 
L 815.072422 355.075895 
L 821.630277 355.876216 
L 829.281107 357.029534 
L 853.326573 360.86518 
L 859.884427 361.597816 
L 866.442282 362.129734 
L 874.093112 362.527094 
L 883.929893 362.784894 
L 898.138578 362.901809 
L 941.857607 362.923731 
L 941.857607 362.923731 
" clip-path="url(#pe81e457b8f)" style="fill: none; stroke: #ff00ff; stroke-opacity: 0.9; stroke-width: 2.5; stroke-linecap: square"/>
   </g>
   <g id="patch_3">
    <path d="M 50.918438 383.344125 
L 50.918438 39.624125 
" style="fill: none; stroke: #000000; stroke-width: 0.8; stroke-linejoin: miter; stroke-linecap: square"/>
   </g>
   <g id="patch_4">
    <path d="M 992.298437 383.344125 
L 992.298437 39.624125 
" style="fill: none; stroke: #000000; stroke-width: 0.8; stroke-linejoin: miter; stroke-linecap: square"/>
   </g>
   <g id="patch_5">
    <path d="M 50.918438 383.344125 
L 992.298438 383.344125 
" style="fill: none; stroke: #000000; stroke-width: 0.8; stroke-linejoin: miter; stroke-linecap: square"/>
   </g>
   <g id="patch_6">
    <path d="M 50.918438 39.624125 
L 992.298438 39.624125 
" style="fill: none; stroke: #000000; stroke-width: 0.8; stroke-linejoin: miter; stroke-linecap: square"/>
   </g>
   <g id="text_18">
    <!-- Motif Detection Scores by Position -->
    <g transform="translate(384.971719 17.837812) scale(0.14 -0.14)">
     <defs>
      <path id="DejaVuSans-Bold-4d" d="M 588 4666 
L 2119 4666 
L 3181 2169 
L 4250 4666 
L 5778 4666 
L 5778 0 
L 4641 0 
L 4641 3413 
L 3566 897 
L 2803 897 
L 1728 3413 
L 1728 0 
L 588 0 
L 588 4666 
z
" transform="scale(0.015625)"/>
      <path id="DejaVuSans-Bold-66" d="M 2841 4863 
L 2841 4128 
L 2222 4128 
Q 1984 4128 1890 4042 
Q 1797 3956 1797 3744 
L 1797 3500 
L 2753 3500 
L 2753 2700 
L 1797 2700 
L 1797 0 
L 678 0 
L 678 2700 
L 122 2700 
L 122 3500 
L 678 3500 
L 678 3744 
Q 678 4316 997 4589 
Q 1316 4863 1984 4863 
L 2841 4863 
z
" transform="scale(0.015625)"/>
      <path id="DejaVuSans-Bold-44" d="M 1791 3756 
L 1791 909 
L 2222 909 
Q 2959 909 3348 1275 
Q 3738 1641 3738 2338 
Q 3738 3031 3350 3393 
Q 2963 3756 2222 3756 
L 1791 3756 
z
M 588 4666 
L 1856 4666 
Q 2919 4666 3439 4514 
Q 3959 4363 4331 4000 
Q 4659 3684 4818 3271 
Q 4978 2859 4978 2338 
Q 4978 1809 4818 1395 
Q 4659 981 4331 666 
Q 3956 303 3431 151 
Q 2906 0 1856 0 
L 588 0 
L 588 4666 
z
" transform="scale(0.015625)"/>
      <path id="DejaVuSans-Bold-62" d="M 2400 722 
Q 2759 722 2948 984 
Q 3138 1247 3138 1747 
Q 3138 2247 2948 2509 
Q 2759 2772 2400 2772 
Q 2041 2772 1848 2508 
Q 1656 2244 1656 1747 
Q 1656 1250 1848 986 
Q 2041 722 2400 722 
z
M 1656 2988 
Q 1888 3294 2169 3439 
Q 2450 3584 2816 3584 
Q 3463 3584 3878 3070 
Q 4294 2556 4294 1747 
Q 4294 938 3878 423 
Q 3463 -91 2816 -91 
Q 2450 -91 2169 54 
Q 1888 200 1656 506 
L 1656 0 
L 538 0 
L 538 4863 
L 1656 4863 
L 1656 2988 
z
" transform="scale(0.015625)"/>
      <path id="DejaVuSans-Bold-79" d="M 78 3500 
L 1197 3500 
L 2138 1125 
L 2938 3500 
L 4056 3500 
L 2584 -331 
Q 2363 -916 2067 -1148 
Q 1772 -1381 1288 -1381 
L 641 -1381 
L 641 -647 
L 991 -647 
Q 1275 -647 1404 -556 
Q 1534 -466 1606 -231 
L 1638 -134 
L 78 3500 
z
" transform="scale(0.015625)"/>
     </defs>
     <use xlink:href="#DejaVuSans-Bold-4d"/>
     <use xlink:href="#DejaVuSans-Bold-6f" transform="translate(99.511719 0)"/>
     <use xlink:href="#DejaVuSans-Bold-74" transform="translate(168.212891 0)"/>
     <use xlink:href="#DejaVuSans-Bold-69" transform="translate(216.015625 0)"/>
     <use xlink:href="#DejaVuSans-Bold-66" transform="translate(250.292969 0)"/>
     <use xlink:href="#DejaVuSans-Bold-20" transform="translate(293.798828 0)"/>
     <use xlink:href="#DejaVuSans-Bold-44" transform="translate(328.613281 0)"/>
     <use xlink:href="#DejaVuSans-Bold-65" transform="translate(411.621094 0)"/>
     <use xlink:href="#DejaVuSans-Bold-74" transform="translate(479.443359 0)"/>
     <use xlink:href="#DejaVuSans-Bold-65" transform="translate(527.246094 0)"/>
     <use xlink:href="#DejaVuSans-Bold-63" transform="translate(595.068359 0)"/>
     <use xlink:href="#DejaVuSans-Bold-74" transform="translate(654.345703 0)"/>
     <use xlink:href="#DejaVuSans-Bold-69" transform="translate(702.148438 0)"/>
     <use xlink:href="#DejaVuSans-Bold-6f" transform="translate(736.425781 0)"/>
     <use xlink:href="#DejaVuSans-Bold-6e" transform="translate(805.126953 0)"/>
     <use xlink:href="#DejaVuSans-Bold-20" transform="translate(876.318359 0)"/>
     <use xlink:href="#DejaVuSans-Bold-53" transform="translate(911.132812 0)"/>
     <use xlink:href="#DejaVuSans-Bold-63" transform="translate(983.154297 0)"/>
     <use xlink:href="#DejaVuSans-Bold-6f" transform="translate(1042.431641 0)"/>
     <use xlink:href="#DejaVuSans-Bold-72" transform="translate(1111.132812 0)"/>
     <use xlink:href="#DejaVuSans-Bold-65" transform="translate(1160.449219 0)"/>
     <use xlink:href="#DejaVuSans-Bold-73" transform="translate(1228.271484 0)"/>
     <use xlink:href="#DejaVuSans-Bold-20" transform="translate(1287.792969 0)"/>
     <use xlink:href="#DejaVuSans-Bold-62" transform="translate(1322.607422 0)"/>
     <use xlink:href="#DejaVuSans-Bold-79" transform="translate(1394.189453 0)"/>
     <use xlink:href="#DejaVuSans-Bold-20" transform="translate(1459.375 0)"/>
     <use xlink:href="#DejaVuSans-Bold-50" transform="translate(1494.189453 0)"/>
     <use xlink:href="#DejaVuSans-Bold-6f" transform="translate(1567.480469 0)"/>
     <use xlink:href="#DejaVuSans-Bold-73" transform="translate(1636.181641 0)"/>
     <use xlink:href="#DejaVuSans-Bold-69" transform="translate(1695.703125 0)"/>
     <use xlink:href="#DejaVuSans-Bold-74" transform="translate(1729.980469 0)"/>
     <use xlink:href="#DejaVuSans-Bold-69" transform="translate(1777.783203 0)"/>
     <use xlink:href="#DejaVuSans-Bold-6f" transform="translate(1812.060547 0)"/>
     <use xlink:href="#DejaVuSans-Bold-6e" transform="translate(1880.761719 0)"/>
    </g>
    <!-- (Layer 22 scores, MEAN aggregation, σ=20.0) -->
    <g transform="translate(340.919844 33.624125) scale(0.14 -0.14)">
     <defs>
      <path id="DejaVuSans-Bold-61" d="M 2106 1575 
Q 1756 1575 1579 1456 
Q 1403 1338 1403 1106 
Q 1403 894 1545 773 
Q 1688 653 1941 653 
Q 2256 653 2472 879 
Q 2688 1106 2688 1447 
L 2688 1575 
L 2106 1575 
z
M 3816 1997 
L 3816 0 
L 2688 0 
L 2688 519 
Q 2463 200 2181 54 
Q 1900 -91 1497 -91 
Q 953 -91 614 226 
Q 275 544 275 1050 
Q 275 1666 698 1953 
Q 1122 2241 2028 2241 
L 2688 2241 
L 2688 2328 
Q 2688 2594 2478 2717 
Q 2269 2841 1825 2841 
Q 1466 2841 1156 2769 
Q 847 2697 581 2553 
L 581 3406 
Q 941 3494 1303 3539 
Q 1666 3584 2028 3584 
Q 2975 3584 3395 3211 
Q 3816 2838 3816 1997 
z
" transform="scale(0.015625)"/>
      <path id="DejaVuSans-Bold-2c" d="M 653 1209 
L 1778 1209 
L 1778 256 
L 1006 -909 
L 341 -909 
L 653 256 
L 653 1209 
z
" transform="scale(0.015625)"/>
      <path id="DejaVuSans-Bold-45" d="M 588 4666 
L 3834 4666 
L 3834 3756 
L 1791 3756 
L 1791 2888 
L 3713 2888 
L 3713 1978 
L 1791 1978 
L 1791 909 
L 3903 909 
L 3903 0 
L 588 0 
L 588 4666 
z
" transform="scale(0.015625)"/>
      <path id="DejaVuSans-Bold-41" d="M 3419 850 
L 1538 850 
L 1241 0 
L 31 0 
L 1759 4666 
L 3194 4666 
L 4922 0 
L 3713 0 
L 3419 850 
z
M 1838 1716 
L 3116 1716 
L 2478 3572 
L 1838 1716 
z
" transform="scale(0.015625)"/>
      <path id="DejaVuSans-Bold-4e" d="M 588 4666 
L 1931 4666 
L 3628 1466 
L 3628 4666 
L 4769 4666 
L 4769 0 
L 3425 0 
L 1728 3200 
L 1728 0 
L 588 0 
L 588 4666 
z
" transform="scale(0.015625)"/>
      <path id="DejaVuSans-Bold-67" d="M 2919 594 
Q 2688 288 2409 144 
Q 2131 0 1766 0 
Q 1125 0 706 504 
Q 288 1009 288 1791 
Q 288 2575 706 3076 
Q 1125 3578 1766 3578 
Q 2131 3578 2409 3434 
Q 2688 3291 2919 2981 
L 2919 3500 
L 4044 3500 
L 4044 353 
Q 4044 -491 3511 -936 
Q 2978 -1381 1966 -1381 
Q 1638 -1381 1331 -1331 
Q 1025 -1281 716 -1178 
L 716 -306 
Q 1009 -475 1290 -558 
Q 1572 -641 1856 -641 
Q 2406 -641 2662 -400 
Q 2919 -159 2919 353 
L 2919 594 
z
M 2181 2772 
Q 1834 2772 1640 2515 
Q 1447 2259 1447 1791 
Q 1447 1309 1634 1061 
Q 1822 813 2181 813 
Q 2531 813 2725 1069 
Q 2919 1325 2919 1791 
Q 2919 2259 2725 2515 
Q 2531 2772 2181 2772 
z
" transform="scale(0.015625)"/>
      <path id="DejaVuSans-Bold-3c3" d="M 2200 2784 
Q 1831 2784 1636 2517 
Q 1441 2250 1441 1747 
Q 1441 1244 1636 976 
Q 1831 709 2200 709 
Q 2569 709 2762 976 
Q 2956 1244 2956 1747 
Q 2956 2250 2762 2517 
Q 2569 2784 2200 2784 
z
M 4650 2700 
L 3916 2700 
Q 4122 2291 4122 1747 
Q 4122 884 3614 396 
Q 3106 -91 2203 -91 
Q 1297 -91 786 396 
Q 275 884 275 1747 
Q 275 2609 788 3097 
Q 1209 3500 2203 3500 
L 4650 3500 
L 4650 2700 
z
" transform="scale(0.015625)"/>
      <path id="DejaVuSans-Bold-3d" d="M 678 3084 
L 4684 3084 
L 4684 2350 
L 678 2350 
L 678 3084 
z
M 678 1663 
L 4684 1663 
L 4684 922 
L 678 922 
L 678 1663 
z
" transform="scale(0.015625)"/>
      <path id="DejaVuSans-Bold-30" d="M 2944 2338 
Q 2944 3213 2780 3570 
Q 2616 3928 2228 3928 
Q 1841 3928 1675 3570 
Q 1509 3213 1509 2338 
Q 1509 1453 1675 1090 
Q 1841 728 2228 728 
Q 2613 728 2778 1090 
Q 2944 1453 2944 2338 
z
M 4147 2328 
Q 4147 1169 3647 539 
Q 3147 -91 2228 -91 
Q 1306 -91 806 539 
Q 306 1169 306 2328 
Q 306 3491 806 4120 
Q 1306 4750 2228 4750 
Q 3147 4750 3647 4120 
Q 4147 3491 4147 2328 
z
" transform="scale(0.015625)"/>
      <path id="DejaVuSans-Bold-2e" d="M 653 1209 
L 1778 1209 
L 1778 0 
L 653 0 
L 653 1209 
z
" transform="scale(0.015625)"/>
     </defs>
     <use xlink:href="#DejaVuSans-Bold-28"/>
     <use xlink:href="#DejaVuSans-Bold-4c" transform="translate(45.703125 0)"/>
     <use xlink:href="#DejaVuSans-Bold-61" transform="translate(109.423828 0)"/>
     <use xlink:href="#DejaVuSans-Bold-79" transform="translate(173.779297 0)"/>
     <use xlink:href="#DejaVuSans-Bold-65" transform="translate(238.964844 0)"/>
     <use xlink:href="#DejaVuSans-Bold-72" transform="translate(306.787109 0)"/>
     <use xlink:href="#DejaVuSans-Bold-20" transform="translate(356.103516 0)"/>
     <use xlink:href="#DejaVuSans-Bold-32" transform="translate(390.917969 0)"/>
     <use xlink:href="#DejaVuSans-Bold-32" transform="translate(460.498047 0)"/>
     <use xlink:href="#DejaVuSans-Bold-20" transform="translate(530.078125 0)"/>
     <use xlink:href="#DejaVuSans-Bold-73" transform="translate(564.892578 0)"/>
     <use xlink:href="#DejaVuSans-Bold-63" transform="translate(624.414062 0)"/>
     <use xlink:href="#DejaVuSans-Bold-6f" transform="translate(683.691406 0)"/>
     <use xlink:href="#DejaVuSans-Bold-72" transform="translate(752.392578 0)"/>
     <use xlink:href="#DejaVuSans-Bold-65" transform="translate(801.708984 0)"/>
     <use xlink:href="#DejaVuSans-Bold-73" transform="translate(869.53125 0)"/>
     <use xlink:href="#DejaVuSans-Bold-2c" transform="translate(929.052734 0)"/>
     <use xlink:href="#DejaVuSans-Bold-20" transform="translate(967.041016 0)"/>
     <use xlink:href="#DejaVuSans-Bold-4d" transform="translate(1001.855469 0)"/>
     <use xlink:href="#DejaVuSans-Bold-45" transform="translate(1101.367188 0)"/>
     <use xlink:href="#DejaVuSans-Bold-41" transform="translate(1169.677734 0)"/>
     <use xlink:href="#DejaVuSans-Bold-4e" transform="translate(1247.070312 0)"/>
     <use xlink:href="#DejaVuSans-Bold-20" transform="translate(1330.761719 0)"/>
     <use xlink:href="#DejaVuSans-Bold-61" transform="translate(1365.576172 0)"/>
     <use xlink:href="#DejaVuSans-Bold-67" transform="translate(1433.056641 0)"/>
     <use xlink:href="#DejaVuSans-Bold-67" transform="translate(1504.638672 0)"/>
     <use xlink:href="#DejaVuSans-Bold-72" transform="translate(1576.220703 0)"/>
     <use xlink:href="#DejaVuSans-Bold-65" transform="translate(1625.537109 0)"/>
     <use xlink:href="#DejaVuSans-Bold-67" transform="translate(1693.359375 0)"/>
     <use xlink:href="#DejaVuSans-Bold-61" transform="translate(1764.941406 0)"/>
     <use xlink:href="#DejaVuSans-Bold-74" transform="translate(1832.421875 0)"/>
     <use xlink:href="#DejaVuSans-Bold-69" transform="translate(1880.224609 0)"/>
     <use xlink:href="#DejaVuSans-Bold-6f" transform="translate(1914.501953 0)"/>
     <use xlink:href="#DejaVuSans-Bold-6e" transform="translate(1983.203125 0)"/>
     <use xlink:href="#DejaVuSans-Bold-2c" transform="translate(2054.394531 0)"/>
     <use xlink:href="#DejaVuSans-Bold-20" transform="translate(2092.382812 0)"/>
     <use xlink:href="#DejaVuSans-Bold-3c3" transform="translate(2127.197266 0)"/>
     <use xlink:href="#DejaVuSans-Bold-3d" transform="translate(2205.078125 0)"/>
     <use xlink:href="#DejaVuSans-Bold-32" transform="translate(2288.867188 0)"/>
     <use xlink:href="#DejaVuSans-Bold-30" transform="translate(2358.447266 0)"/>
     <use xlink:href="#DejaVuSans-Bold-2e" transform="translate(2428.027344 0)"/>
     <use xlink:href="#DejaVuSans-Bold-30" transform="translate(2466.015625 0)"/>
     <use xlink:href="#DejaVuSans-Bold-29" transform="translate(2535.595703 0)"/>
    </g>
   </g>
  </g>
 </g>
 <defs>
  <clipPath id="pe81e457b8f">
   <rect x="50.918438" y="39.624125" width="941.38" height="343.72"/>
  </clipPath>
 </defs>
</svg>
